<svg width="54" height="52" viewBox="0 0 54 52" fill="none" xmlns="http://www.w3.org/2000/svg">
<path d="M26.7353 51C40.9484 51 52.4706 39.807 52.4706 26C52.4706 12.1929 40.9484 1 26.7353 1C12.5221 1 1 12.1929 1 26C1 39.807 12.5221 51 26.7353 51Z" fill="#BDBDBD" stroke="white" stroke-width="2" stroke-linecap="round" stroke-linejoin="round"/>
<path d="M32.7401 43.5001V38.8426C32.8044 38.0689 32.694 37.2909 32.4158 36.5606C32.1379 35.8304 31.6986 35.1644 31.1275 34.6071C36.5147 34.0391 42.1765 32.1079 42.1765 23.2474C42.176 20.9815 41.2546 18.8027 39.6029 17.1617C40.385 15.1794 40.3297 12.9883 39.4485 11.0436C39.4485 11.0436 37.4239 10.4756 32.7401 13.4454C28.8078 12.4373 24.6628 12.4373 20.7304 13.4454C16.0466 10.4756 14.022 11.0436 14.022 11.0436C13.1408 12.9883 13.0855 15.1794 13.8676 17.1617C12.2036 18.8148 11.2813 21.0134 11.2941 23.2959C11.2941 32.0916 16.9559 34.0229 22.343 34.6556C21.7787 35.2074 21.3433 35.8654 21.0654 36.5869C20.7876 37.3081 20.6734 38.0766 20.7304 38.8426V43.5001" fill="#BDBDBD"/>
<path d="M32.7401 43.5001V38.8426C32.8044 38.0689 32.694 37.2909 32.4158 36.5606C32.1379 35.8304 31.6986 35.1644 31.1275 34.6071C36.5147 34.0391 42.1765 32.1079 42.1765 23.2474C42.176 20.9815 41.2546 18.8027 39.6029 17.1617C40.385 15.1794 40.3297 12.9883 39.4485 11.0436C39.4485 11.0436 37.4239 10.4756 32.7401 13.4454C28.8078 12.4373 24.6628 12.4373 20.7304 13.4454C16.0466 10.4756 14.022 11.0436 14.022 11.0436C13.1408 12.9883 13.0855 15.1794 13.8676 17.1617C12.2036 18.8148 11.2813 21.0134 11.2941 23.2959C11.2941 32.0916 16.9559 34.0229 22.343 34.6556C21.7787 35.2074 21.3433 35.8654 21.0654 36.5869C20.7876 37.3081 20.6734 38.0766 20.7304 38.8426V43.5001" stroke="white" stroke-width="2" stroke-linecap="round" stroke-linejoin="round"/>
<path d="M20.7304 40.2545C15.5833 41.8337 11.2941 40.2545 8.72059 35.386Z" fill="#BDBDBD"/>
<path d="M20.7304 40.2545C15.5833 41.8337 11.2941 40.2545 8.72059 35.386" stroke="white" stroke-width="2" stroke-linecap="round" stroke-linejoin="round"/>
</svg>
